<svg width="393" height="852" viewBox="0 0 393 852" fill="none" xmlns="http://www.w3.org/2000/svg">
<path d="M545 572.033C545 696.279 366.681 797 146.714 797C-73.2535 797 -251.572 696.279 -251.572 572.033C-251.572 447.787 -353.174 172 -133.206 172C86.7611 172 545 447.787 545 572.033Z" fill="url(#paint0_angular_2040_202)"/>
<path d="M451 323C506.174 374.035 487 509 350.605 409C129.911 300.274 -25 262.818 -25 151.607C-25 40.3958 -24.0889 -37 159.619 -37C343.328 -37 644.108 5.69653 451 323Z" fill="#333134"/>
<path d="M484 747C484 869.055 335.359 879 152 879C-31.3585 879 -180 780.055 -180 658C-180 535.945 272.641 275 456 275C639.359 275 484 624.945 484 747Z" fill="url(#paint1_angular_2040_202)"/>
<defs>
<radialGradient id="paint0_angular_2040_202" cx="0" cy="0" r="1" gradientUnits="userSpaceOnUse" gradientTransform="translate(135 853) rotate(89.8982) scale(290.859 381.607)">
<stop stop-color="#363335"/>
<stop offset="0.307226" stop-color="#1B1A1D"/>
<stop offset="0.372855" stop-opacity="0.573707"/>
<stop offset="0.595" stop-color="#0B0A0B" stop-opacity="0.301755"/>
<stop offset="0.999245" stop-color="#1D191C" stop-opacity="0"/>
</radialGradient>
<radialGradient id="paint1_angular_2040_202" cx="0" cy="0" r="1" gradientUnits="userSpaceOnUse" gradientTransform="translate(194.722 466.98) rotate(90) scale(302 362.722)">
<stop/>
<stop offset="0.305" stop-color="#141314" stop-opacity="0.695"/>
<stop offset="0.645" stop-color="#FFFEFF" stop-opacity="0.355"/>
<stop offset="0.742436" stop-color="white" stop-opacity="0"/>
</radialGradient>
</defs>
</svg>
